<svg width="365" height="349" xmlns="http://www.w3.org/2000/svg"><g id="Page-1" fill="none" fill-rule="evenodd"><g id="Left-Antenna-Copy"><path id="Rectangle-5" fill="#3E4347" d="M16 287h19v12H16z"/><path id="Rectangle-6" fill="#3E4347" d="M16 43h12v256H16z"/><circle id="Oval-3" fill="#FB5667" cx="22" cy="22" r="22"/><rect id="Left-Antenna-Mount" fill="#89957B" x="35" y="262" width="13" height="61" rx="6.5"/></g><g id="Right-Antenna-Copy" transform="translate(317)"><path id="Rectangle-5-Copy" fill="#3E4347" d="M13 287h19v12H13z"/><path id="Rectangle-6-Copy" fill="#3E4347" d="M20 43h12v256H20z"/><circle id="Oval-3-Copy" fill="#27B9EE" cx="26" cy="22" r="22"/><rect id="Right-Antenna-Mount" fill="#89957B" y="262" width="13" height="61" rx="6.5"/></g><rect id="Head-Copy" fill="#B6C3A8" x="43" y="69" width="280" height="280" rx="21"/><g id="Left-Eye" transform="translate(65 100)"><circle id="Oval" stroke="#F0FEDB" stroke-width="10" fill="#545B61" cx="52" cy="52" r="52"/><circle id="Oval-2" fill="#FB5667" cx="52" cy="52" r="15"/></g><g id="Right-Eye" transform="translate(197 100)"><circle id="Oval" stroke="#F0FEDB" stroke-width="10" fill="#545B61" cx="52" cy="52" r="52"/><circle id="Oval-2" fill="#FB5667" cx="52" cy="52" r="15"/></g><g id="Mouth-Copy" transform="translate(64 248)"><path d="M35 4.5C18.155 4.5 4.5 18.155 4.5 35S18.155 65.5 35 65.5h169c16.845 0 30.5-13.655 30.5-30.5S220.845 4.5 204 4.5H35z" id="Lips" stroke="#F0FEDB" stroke-width="9" fill="#89957B"/><g id="Teeth" transform="translate(32 14)" fill="#555C56"><rect id="Rectangle-3" width="10" height="42" rx="5"/><rect id="Rectangle-3-Copy" x="33" width="10" height="42" rx="5"/><rect id="Rectangle-3-Copy-5" x="66" width="10" height="42" rx="5"/><rect id="Rectangle-3-Copy-2" x="165" width="10" height="42" rx="5"/><rect id="Rectangle-3-Copy-3" x="99" width="10" height="42" rx="5"/><rect id="Rectangle-3-Copy-4" x="132" width="10" height="42" rx="5"/></g></g><g id="Nose-Screw-Copy" transform="translate(171 204)"><circle id="Oval-4" fill="#F5F5F5" cx="12" cy="12" r="12"/><path d="M.918 9.834h22a1 1 0 0 1 1 1v2.054a1 1 0 0 1-1 1h-22a1 1 0 0 1-1-1v-2.054a1 1 0 0 1 1-1z" id="Rectangle-7" fill="#545B61" transform="rotate(121 11.918 11.861)"/></g></g></svg>